<?xml version="1.0" standalone="no"?><!DOCTYPE svg PUBLIC "-//W3C//DTD SVG 1.1//EN" "http://www.w3.org/Graphics/SVG/1.1/DTD/svg11.dtd"><svg t="1583647394305" class="icon" viewBox="0 0 1024 1024" version="1.1" xmlns="http://www.w3.org/2000/svg" p-id="2700" xmlns:xlink="http://www.w3.org/1999/xlink" width="200" height="200"><defs><style type="text/css"></style></defs><path d="M744.727273 626.176v-129.629091c-69.818182 28.485818-139.636364 42.682182-209.454546 42.682182s-139.636364-14.196364-209.454545-42.682182v129.629091c69.818182 28.392727 139.636364 42.635636 209.454545 42.635636s139.636364-14.196364 209.454546-42.635636z m0 103.098182c-69.818182 28.485818-139.636364 42.682182-209.454546 42.682182s-139.636364-14.196364-209.454545-42.682182v66.001454c0 28.951273 90.763636 70.469818 209.454545 70.469819s209.454545-41.518545 209.454546-70.469819v-66.001454z m0-335.825455V287.092364c-69.818182 28.485818-139.636364 42.682182-209.454546 42.682181s-139.636364-14.196364-209.454545-42.682181v106.356363c69.818182 28.392727 139.636364 42.635636 209.454545 42.635637s139.636364-14.196364 209.454546-42.635637z m-411.787637-206.661818c67.444364 26.577455 134.888727 39.842909 202.333091 39.842909 67.490909 0 134.888727-13.265455 202.333091-39.796363-8.285091-7.028364-21.317818-14.382545-38.306909-21.038546C657.408 149.410909 598.574545 139.636364 535.272727 139.636364c-63.301818 0-122.135273 9.774545-164.026182 26.158545-16.989091 6.656-30.021818 13.963636-38.306909 21.038546zM535.272727 958.836364c-164.119273 0-302.545455-63.301818-302.545454-163.560728V193.442909C232.727273 100.305455 370.129455 46.545455 535.272727 46.545455S837.818182 100.398545 837.818182 193.396364v601.832727c0 100.305455-138.426182 163.607273-302.545455 163.607273z" fill="#707070" p-id="2701"></path></svg>